<?xml version="1.0" encoding="UTF-8"?>
<!-- Generator: Adobe Illustrator 15.1.0, SVG Export Plug-In . SVG Version: 6.00 Build 0)  -->
<!DOCTYPE svg PUBLIC "-//W3C//DTD SVG 1.1//EN" "http://www.w3.org/Graphics/SVG/1.1/DTD/svg11.dtd">
<svg version="1.1" id="Layer_1" xmlns="http://www.w3.org/2000/svg" xmlns:xlink="http://www.w3.org/1999/xlink" x="0px" y="0px" width="40px" height="40px" viewBox="0 0 40 40" enable-background="new 0 0 40 40" xml:space="preserve">
<path fill="#404040" d="M33.961,0H6.041C2.704,0,0,2.705,0,6.042v27.919C0,37.296,2.704,40,6.041,40h27.92  C37.296,40,40,37.296,40,33.961V6.042C40,2.705,37.296,0,33.961,0z M12.103,33.578H6.091v-18.09h6.012V33.578z M9.098,13.018h-0.04  c-2.018,0-3.322-1.389-3.322-3.125c0-1.775,1.343-3.125,3.401-3.125c2.056,0,3.323,1.35,3.362,3.125  C12.499,11.629,11.194,13.018,9.098,13.018z M33.782,33.579H27.77V23.9c0-2.432-0.869-4.091-3.045-4.091  c-1.66,0-2.649,1.118-3.084,2.199c-0.16,0.389-0.199,0.928-0.199,1.469v10.102H15.43c0,0,0.08-16.393,0-18.09h6.011v2.564  c0.798-1.233,2.225-2.989,5.418-2.989c3.957,0,6.923,2.585,6.923,8.142V33.579z"/>
</svg>